<?xml version="1.0" encoding="UTF-8" standalone="no"?>
<!-- Created with Inkscape (http://www.inkscape.org/) -->

<svg
   viewBox="0 0 229.5853 106.96231"
   version="1.1"
   id="svg1"
   xmlns="http://www.w3.org/2000/svg"
   xmlns:xlink="http://www.w3.org/1999/xlink"><defs
     id="defs1" /><g
     id="layer1"
     style="display:inline"
     transform="translate(-33.707357,-51.518848)"><g
       id="g37"
       transform="translate(-3.9701771,23.629011)"><g
         id="g29"><rect
           style="fill:#0555ab;fill-opacity:1;stroke-width:0.924215;stroke-linejoin:bevel"
           id="rect6"
           width="9.3595133"
           height="3.0738685"
           x="91.711784"
           y="-21.301846"
           ry="0.61477369"
           transform="matrix(0.86926757,0.49434187,-0.55871992,0.82935641,0,0)" /><rect
           style="fill:#0555ab;fill-opacity:1;stroke-width:1.14591;stroke-linejoin:bevel"
           id="rect7"
           width="19.296495"
           height="4.4696426"
           x="87.435379"
           y="36.848518"
           rx="0.31731591"
           ry="0.44233522"
           transform="rotate(29.115074)" /><rect
           style="fill:#0555ab;fill-opacity:1;stroke-width:1.14591;stroke-linejoin:bevel"
           id="rect8"
           width="18.134304"
           height="4.6647854"
           x="88.302193"
           y="-9.3063822"
           rx="0.31731591"
           ry="0.44233522"
           transform="rotate(29.081744)" /><rect
           style="fill:#29a4eb;fill-opacity:1;stroke-width:1.14591;stroke-linejoin:bevel"
           id="rect10"
           width="6.6418505"
           height="7.9971471"
           x="94.416573"
           y="-17.73465"
           rx="0.31731591"
           ry="0.44233522"
           transform="rotate(29.362798)" /><rect
           style="fill:#29a4eb;fill-opacity:1;stroke-width:1.14591;stroke-linejoin:bevel"
           id="rect11"
           width="11.017028"
           height="7.1660576"
           x="91.566711"
           y="41.083649"
           rx="0.31731591"
           ry="0.44233522"
           transform="rotate(29.19796)" /><rect
           style="fill:#29a4eb;fill-opacity:1;stroke-width:1.14591;stroke-linejoin:bevel"
           id="rect12"
           width="7.1545944"
           height="4.5153575"
           x="93.535538"
           y="48.427467"
           rx="0.31731591"
           ry="0.44233522"
           transform="rotate(29.198602)" /><path
           d="m 81.914897,40.299349 c -0.132145,0.0034 -0.277862,0.102252 -0.366903,0.263033 L 61.838086,76.152458 c -0.118722,0.214374 -0.09074,0.455885 0.06305,0.541052 l 10.353373,5.7335 c 0.153785,0.08517 0.373239,-0.01869 0.49196,-0.233061 l 3.54552,-6.402193 c 23.087957,6.401852 18.924945,31.857404 6.19032,37.882444 -3.705003,1.75292 -11.413737,3.52166 -15.764929,-0.12299 -6.814445,-5.70792 -7.779826,-5.16982 -7.808309,-5.15163 l -4.113961,7.5458 c 0,0 3.248743,1.64931 8.077543,4.56923 9.419553,5.69588 29.449539,4.81138 40.928777,-16.91008 4.58036,-8.667096 5.35753,-23.021989 -0.0992,-33.121494 C 97.521656,59.04413 90.517358,55.922199 87.749166,55.103613 l 4.707206,-8.500256 c 0.118722,-0.214375 0.09074,-0.455369 -0.06305,-0.540536 L 82.039954,40.328805 c -0.03845,-0.02129 -0.08101,-0.03058 -0.125057,-0.02946 z m 1.102258,21.039026 a 4.7002096,4.7002096 0 0 1 4.699971,4.699971 4.7002096,4.7002096 0 0 1 -4.699971,4.700489 4.7002096,4.7002096 0 0 1 -4.700488,-4.700489 4.7002096,4.7002096 0 0 1 4.700488,-4.699971 z M 72.369743,117.68481 a 2.6454798,2.6454798 0 0 1 2.645316,2.64531 2.6454798,2.6454798 0 0 1 -2.645316,2.64584 2.6454798,2.6454798 0 0 1 -2.645317,-2.64584 2.6454798,2.6454798 0 0 1 2.645317,-2.64531 z"
           style="fill:#29a4eb;stroke-width:1.14591;stroke-linejoin:bevel"
           id="path27" /><rect
           style="fill:#ece8e6;fill-opacity:1;stroke-width:1.14591;stroke-linejoin:bevel"
           id="rect14"
           width="21.778406"
           height="1.3320537"
           x="87.686134"
           y="56.862663"
           rx="0.31731591"
           ry="0"
           transform="rotate(30.396089)" /><path
           d="m 72.279309,111.95027 c -2.435607,-0.0207 -13.107023,15.8411 -11.857157,17.62425 1.249865,1.78315 23.170394,1.96964 24.356136,0.20722 1.185741,-1.76241 -10.063372,-17.81073 -12.498979,-17.83147 z m 0.08423,5.72523 a 2.6454798,2.6454798 0 0 1 2.645316,2.64532 2.6454798,2.6454798 0 0 1 -2.645316,2.64583 2.6454798,2.6454798 0 0 1 -2.645317,-2.64583 2.6454798,2.6454798 0 0 1 2.645317,-2.64532 z"
           style="fill:#0555ab;stroke-width:1.14591;stroke-linejoin:bevel"
           id="path26" /><circle
           style="fill:none;fill-opacity:1;stroke:#29a4eb;stroke-width:2.846;stroke-linejoin:bevel;stroke-dasharray:none;stroke-opacity:1"
           id="path16"
           cx="72.363869"
           cy="120.34354"
           r="4.0771351" /><circle
           style="display:inline;fill:none;fill-opacity:1;stroke:#0555ab;stroke-width:5.05928;stroke-linejoin:bevel;stroke-dasharray:none;stroke-opacity:1"
           id="path16-6"
           cx="83.02523"
           cy="66.024933"
           r="7.2478418" /><rect
           style="fill:#29a4eb;fill-opacity:1;stroke:none;stroke-width:2.84599;stroke-linejoin:bevel;stroke-dasharray:none;stroke-opacity:1"
           id="rect16"
           width="34.087318"
           height="4.4548473"
           x="80.436195"
           y="60.13652"
           rx="0.75043476"
           ry="2.2147024"
           transform="rotate(30.094619)" /><rect
           style="display:inline;fill:#29a4eb;fill-opacity:1;stroke:none;stroke-width:2.84599;stroke-linejoin:bevel;stroke-dasharray:none;stroke-opacity:1"
           id="rect16-7"
           width="23.696903"
           height="4.4972177"
           x="89.92717"
           y="70.295677"
           rx="0.75043476"
           ry="2.1869326"
           transform="rotate(29.036931)" /><rect
           style="fill:#0555ab;fill-opacity:1;stroke:none;stroke-width:2.67436;stroke-linejoin:bevel;stroke-dasharray:none;stroke-opacity:1"
           id="rect18"
           width="44.91407"
           height="5.6385493"
           x="50.100471"
           y="129.21359"
           rx="22.457035"
           ry="0.76921785" /></g><g
         id="g36"><path
           style="font-weight:bold;font-size:22.5778px;font-family:Poppins;-inkscape-font-specification:'Poppins Bold';fill:#0555ab;stroke-width:2.846;stroke-linejoin:bevel"
           d="m 145.90477,61.420869 -5.62187,15.849616 h -4.83165 l -5.62187,-15.849616 h 4.10915 l 3.92854,11.966234 3.95112,-11.966234 z m 5.46382,3.093159 v 3.206047 h 5.17031 v 2.98027 h -5.17031 v 3.476981 h 5.84765 v 3.093159 h -9.70846 V 61.420869 h 9.70846 v 3.093159 z m 22.53261,12.756457 h -3.86081 l -6.45725,-9.776188 v 9.776188 h -3.8608 V 61.420869 h 3.8608 l 6.45725,9.821343 v -9.821343 h 3.86081 z m 6.66042,-12.756457 v 3.206047 h 5.17032 v 2.98027 h -5.17032 v 3.476981 h 5.84765 v 3.093159 h -9.70845 V 61.420869 h 9.70845 v 3.093159 z m 7.699,4.809071 q 0,-2.348091 1.016,-4.176893 1.016,-1.85138 2.82223,-2.867381 1.8288,-1.038579 4.13173,-1.038579 2.82223,0 4.83165,1.490135 2.00943,1.490135 2.68676,4.064004 h -4.24463 q -0.47413,-0.993423 -1.35466,-1.512712 -0.85796,-0.51929 -1.96427,-0.51929 -1.78365,0 -2.88996,1.241779 -1.10631,1.241779 -1.10631,3.318937 0,2.077158 1.10631,3.318937 1.10631,1.241779 2.88996,1.241779 1.10631,0 1.96427,-0.51929 0.88053,-0.519289 1.35466,-1.512712 h 4.24463 q -0.67733,2.573869 -2.68676,4.064004 -2.00942,1.467557 -4.83165,1.467557 -2.30293,0 -4.13173,-1.016001 -1.80623,-1.038579 -2.82223,-2.867381 -1.016,-1.828802 -1.016,-4.176893 z m 21.71983,-7.90223 v 15.849616 h -3.86081 V 61.420869 Z m 12.6661,13.049969 h -5.91539 l -0.94826,2.799647 h -4.04143 l 5.73476,-15.849616 h 4.47041 l 5.73476,15.849616 h -4.08658 z m -0.99342,-2.98027 -1.96427,-5.802495 -1.94169,5.802495 z"
           id="text28"
           aria-label="VENECIA" /><path
           style="font-weight:bold;font-size:15.5222px;font-family:Poppins;-inkscape-font-specification:'Poppins Bold';fill:#737373;stroke-width:2.846;stroke-linejoin:bevel"
           d="m 92.902233,95.380269 h 3.476973 v 2.04893 H 90.247937 V 86.532615 h 2.654296 z m 11.532987,0.124177 h -4.06682 l -0.651932,1.924753 h -2.778474 l 3.942636,-10.896584 h 3.0734 l 3.94264,10.896584 h -2.80952 z m -0.68298,-2.04893 -1.35043,-3.989205 -1.33491,3.989205 z m 11.93656,-1.614309 q 0.94686,0.201789 1.52118,0.946855 0.57432,0.729543 0.57432,1.676397 0,1.365954 -0.96238,2.173108 -0.94685,0.791632 -2.65429,0.791632 h -5.07576 V 86.532615 h 4.90501 q 1.66088,0 2.59221,0.760588 0.94685,0.760588 0.94685,2.064452 0,0.962377 -0.51223,1.598787 -0.49671,0.63641 -1.33491,0.884765 z m -3.94264,-0.900287 h 1.73849 q 0.65193,0 0.99342,-0.2794 0.35701,-0.294922 0.35701,-0.853721 0,-0.558799 -0.35701,-0.853721 -0.34149,-0.294922 -0.99342,-0.294922 h -1.73849 z m 1.9558,4.346216 q 0.66746,0 1.02447,-0.294922 0.37253,-0.310444 0.37253,-0.884766 0,-0.574321 -0.38806,-0.900287 -0.37253,-0.325966 -1.03998,-0.325966 h -1.92476 v 2.405941 z m 10.77239,2.250719 q -1.5367,0 -2.82504,-0.714022 -1.27283,-0.714021 -2.03341,-1.986841 -0.74507,-1.288343 -0.74507,-2.887129 0,-1.598787 0.74507,-2.871607 0.76058,-1.272821 2.03341,-1.986842 1.28834,-0.714021 2.82504,-0.714021 1.53669,0 2.80951,0.714021 1.28835,0.714021 2.01789,1.986842 0.74507,1.27282 0.74507,2.871607 0,1.598786 -0.74507,2.887129 -0.74507,1.27282 -2.01789,1.986841 -1.27282,0.714022 -2.80951,0.714022 z m 0,-2.421464 q 1.30386,0 2.07997,-0.869243 0.79163,-0.869243 0.79163,-2.297285 0,-1.443565 -0.79163,-2.297286 -0.77611,-0.869243 -2.07997,-0.869243 -1.31939,0 -2.11102,0.853721 -0.77611,0.853721 -0.77611,2.312808 0,1.443564 0.77611,2.312807 0.79163,0.853721 2.11102,0.853721 z m 12.60401,2.312808 -2.26624,-4.113383 h -0.63641 v 4.113383 h -2.6543 V 86.532615 h 4.45487 q 1.28835,0 2.18863,0.450144 0.91581,0.450144 1.36596,1.241776 0.45014,0.77611 0.45014,1.738486 0,1.086554 -0.62089,1.940275 -0.60536,0.853721 -1.80057,1.210732 l 2.51459,4.315171 z m -2.90265,-5.991569 h 1.64535 q 0.72955,0 1.08656,-0.35701 0.37253,-0.357011 0.37253,-1.008943 0,-0.620888 -0.37253,-0.977899 -0.35701,-0.357011 -1.08656,-0.357011 h -1.64535 z m 14.24935,4.066816 h -4.06681 l -0.65194,1.924753 h -2.77847 l 3.94264,-10.896584 h 3.07339 l 3.94264,10.896584 H 149.077 Z m -0.68297,-2.04893 -1.35044,-3.989205 -1.3349,3.989205 z m 13.17834,-6.922901 v 2.126541 h -2.88713 v 8.770043 h -2.6543 v -8.770043 h -2.88713 v -2.126541 z m 6.48827,11.00524 q -1.5367,0 -2.82504,-0.714022 -1.27282,-0.714021 -2.03341,-1.986841 -0.74506,-1.288343 -0.74506,-2.887129 0,-1.598787 0.74506,-2.871607 0.76059,-1.272821 2.03341,-1.986842 1.28834,-0.714021 2.82504,-0.714021 1.5367,0 2.80952,0.714021 1.28834,0.714021 2.01788,1.986842 0.74507,1.27282 0.74507,2.871607 0,1.598786 -0.74507,2.887129 -0.74506,1.27282 -2.01788,1.986841 -1.27282,0.714022 -2.80952,0.714022 z m 0,-2.421464 q 1.30386,0 2.07997,-0.869243 0.79164,-0.869243 0.79164,-2.297285 0,-1.443565 -0.79164,-2.297286 -0.77611,-0.869243 -2.07997,-0.869243 -1.31939,0 -2.11102,0.853721 -0.77611,0.853721 -0.77611,2.312808 0,1.443564 0.77611,2.312807 0.79163,0.853721 2.11102,0.853721 z m 12.60402,2.312808 -2.26624,-4.113383 h -0.63641 v 4.113383 h -2.6543 V 86.532615 h 4.45487 q 1.28834,0 2.18863,0.450144 0.91581,0.450144 1.36595,1.241776 0.45015,0.77611 0.45015,1.738486 0,1.086554 -0.62089,1.940275 -0.60537,0.853721 -1.80058,1.210732 l 2.5146,4.315171 z m -2.90265,-5.991569 h 1.64535 q 0.72954,0 1.08655,-0.35701 0.37254,-0.357011 0.37254,-1.008943 0,-0.620888 -0.37254,-0.977899 -0.35701,-0.357011 -1.08655,-0.357011 h -1.64535 z m 10.12045,-4.905015 v 10.896584 h -2.6543 V 86.532615 Z m 7.07809,11.00524 q -1.5367,0 -2.82504,-0.714022 -1.27282,-0.714021 -2.03341,-1.986841 -0.74506,-1.288343 -0.74506,-2.887129 0,-1.598787 0.74506,-2.871607 0.76059,-1.272821 2.03341,-1.986842 1.28834,-0.714021 2.82504,-0.714021 1.5367,0 2.80952,0.714021 1.28834,0.714021 2.01788,1.986842 0.74507,1.27282 0.74507,2.871607 0,1.598786 -0.74507,2.887129 -0.74506,1.27282 -2.01788,1.986841 -1.27282,0.714022 -2.80952,0.714022 z m 0,-2.421464 q 1.30386,0 2.07997,-0.869243 0.79164,-0.869243 0.79164,-2.297285 0,-1.443565 -0.79164,-2.297286 -0.77611,-0.869243 -2.07997,-0.869243 -1.31939,0 -2.11102,0.853721 -0.77611,0.853721 -0.77611,2.312808 0,1.443564 0.77611,2.312807 0.79163,0.853721 2.11102,0.853721 z m 9.88763,-3.151006 q 0,-1.614309 0.6985,-2.871607 0.6985,-1.27282 1.94027,-1.971319 1.2573,-0.714022 2.84056,-0.714022 1.94028,0 3.32176,1.024466 1.38147,1.024465 1.84714,2.793996 h -2.91818 q -0.32596,-0.682977 -0.93133,-1.039988 -0.58984,-0.35701 -1.35043,-0.35701 -1.22625,0 -1.98684,0.853721 -0.76059,0.853721 -0.76059,2.281763 0,1.428042 0.76059,2.281763 0.76059,0.853721 1.98684,0.853721 0.76059,0 1.35043,-0.35701 0.60537,-0.357011 0.93133,-1.039988 h 2.91818 q -0.46567,1.769531 -1.84714,2.793996 -1.38148,1.008943 -3.32176,1.008943 -1.58326,0 -2.84056,-0.698499 -1.24177,-0.714021 -1.94027,-1.971319 -0.6985,-1.257298 -0.6985,-2.871607 z m 14.93234,3.414884 h 3.47697 v 2.04893 h -6.13126 V 86.532615 h 2.65429 z m 7.40409,-8.847654 v 10.896584 h -2.6543 V 86.532615 Z m 0.48118,-2.18863 -3.74085,1.567742 v -1.831619 l 3.74085,-1.800576 z m 11.19147,13.085214 h -2.6543 l -4.43934,-6.721112 v 6.721112 h -2.6543 V 86.532615 h 2.6543 l 4.43934,6.752157 v -6.752157 h 2.6543 z m 4.57904,-10.896584 v 10.896584 h -2.6543 V 86.532615 Z m 1.47458,5.43277 q 0,-1.614309 0.6985,-2.871607 0.6985,-1.27282 1.94028,-1.971319 1.2573,-0.714022 2.84056,-0.714022 1.94028,0 3.32175,1.024466 1.38148,1.024465 1.84714,2.793996 H 251.989 q -0.32597,-0.682977 -0.93133,-1.039988 -0.58985,-0.35701 -1.35043,-0.35701 -1.22626,0 -1.98685,0.853721 -0.76058,0.853721 -0.76058,2.281763 0,1.428042 0.76058,2.281763 0.76059,0.853721 1.98685,0.853721 0.76058,0 1.35043,-0.35701 0.60536,-0.357011 0.93133,-1.039988 h 2.91817 q -0.46566,1.769531 -1.84714,2.793996 -1.38147,1.008943 -3.32175,1.008943 -1.58326,0 -2.84056,-0.698499 -1.24178,-0.714021 -1.94028,-1.971319 -0.6985,-1.257298 -0.6985,-2.871607 z m 17.43141,5.57247 q -1.53669,0 -2.82504,-0.714022 -1.27282,-0.714021 -2.0334,-1.986841 -0.74507,-1.288343 -0.74507,-2.887129 0,-1.598787 0.74507,-2.871607 0.76058,-1.272821 2.0334,-1.986842 1.28835,-0.714021 2.82504,-0.714021 1.5367,0 2.80952,0.714021 1.28835,0.714021 2.01789,1.986842 0.74506,1.27282 0.74506,2.871607 0,1.598786 -0.74506,2.887129 -0.74507,1.27282 -2.01789,1.986841 -1.27282,0.714022 -2.80952,0.714022 z m 0,-2.421464 q 1.30387,0 2.07998,-0.869243 0.79163,-0.869243 0.79163,-2.297285 0,-1.443565 -0.79163,-2.297286 -0.77611,-0.869243 -2.07998,-0.869243 -1.31938,0 -2.11101,0.853721 -0.77611,0.853721 -0.77611,2.312808 0,1.443564 0.77611,2.312807 0.79163,0.853721 2.11101,0.853721 z"
           id="text28-1"
           aria-label="LABORATORIO CLÃNICO" /><path
           style="font-weight:500;font-size:8.46667px;font-family:Poppins;-inkscape-font-specification:'Poppins Medium';fill:#0555ab;stroke-width:2.846;stroke-linejoin:bevel"
           d="m 103.77892,104.17393 v 1.7272 h 2.032 v 0.7874 h -2.032 v 1.8034 h 2.286 v 0.7874 h -3.2512 v -5.8928 h 3.2512 v 0.7874 z m 6.17219,2.16746 1.8288,2.93794 h -1.08374 l -1.32926,-2.1336 -1.2446,2.1336 h -1.07527 l 1.8288,-2.93794 -1.83727,-2.9464 h 1.08374 l 1.33773,2.15054 1.25307,-2.15054 h 1.07526 z m 6.43466,1.73567 h -2.4638 l -0.42333,1.20227 h -1.00753 l 2.1082,-5.8928 h 1.1176 l 2.1082,5.8928 h -1.016 z m -0.27093,-0.7874 -0.95673,-2.73473 -0.9652,2.73473 z m 2.30292,-0.9652 q 0,-0.8636 0.39794,-1.5494 0.4064,-0.6858 1.0922,-1.0668 0.69426,-0.38947 1.51553,-0.38947 0.9398,0 1.66794,0.46567 0.7366,0.4572 1.0668,1.30387 h -1.15994 q -0.2286,-0.46567 -0.635,-0.69427 -0.4064,-0.2286 -0.9398,-0.2286 -0.5842,0 -1.0414,0.26247 -0.4572,0.26246 -0.71967,0.75353 -0.254,0.49107 -0.254,1.143 0,0.65193 0.254,1.143 0.26247,0.49107 0.71967,0.762 0.4572,0.26247 1.0414,0.26247 0.5334,0 0.9398,-0.2286 0.4064,-0.2286 0.635,-0.69427 h 1.15994 q -0.3302,0.84667 -1.0668,1.30387 -0.72814,0.4572 -1.66794,0.4572 -0.82973,0 -1.51553,-0.381 -0.6858,-0.38947 -1.0922,-1.07527 -0.39794,-0.6858 -0.39794,-1.5494 z m 10.668,-2.92947 v 0.7874 h -1.56634 v 5.09694 h -0.9652 v -5.09694 h -1.5748 v -0.7874 z m 1.93886,0 v 5.88434 h -0.9652 v -5.88434 z m 5.07153,0 v 0.7874 h -1.56633 v 5.09694 h -0.9652 v -5.09694 h -1.5748 v -0.7874 z m 1.9304,0 v 3.75074 q 0,0.66886 0.34713,1.00753 0.3556,0.33867 0.98214,0.33867 0.635,0 0.98213,-0.33867 0.3556,-0.33867 0.3556,-1.00753 v -3.75074 h 0.9652 v 3.7338 q 0,0.71967 -0.31327,1.2192 -0.31326,0.49954 -0.8382,0.74507 -0.52493,0.24553 -1.15993,0.24553 -0.635,0 -1.15993,-0.24553 -0.51647,-0.24553 -0.82127,-0.74507 -0.3048,-0.49953 -0.3048,-1.2192 v -3.7338 z m 6.80719,0 q 0.9398,0 1.64253,0.36407 0.7112,0.3556 1.0922,1.03293 0.38947,0.66887 0.38947,1.56634 0,0.89746 -0.38947,1.55786 -0.381,0.6604 -1.0922,1.016 -0.70273,0.34714 -1.64253,0.34714 h -1.92194 v -5.88434 z m 0,5.09694 q 1.03293,0 1.58326,-0.5588 0.55034,-0.5588 0.55034,-1.5748 0,-1.02447 -0.55034,-1.6002 -0.55033,-0.57574 -1.58326,-0.57574 H 143.877 v 4.30954 z m 10.64259,-5.09694 -1.94734,3.75074 v 2.1336 h -0.9652 v -2.1336 l -1.9558,-3.75074 h 1.07527 l 1.36313,2.88714 1.36314,-2.88714 z m 2.64158,2.92947 q 0,-0.8636 0.39793,-1.5494 0.4064,-0.6858 1.0922,-1.0668 0.69427,-0.38947 1.51554,-0.38947 0.9398,0 1.66793,0.46567 0.7366,0.4572 1.0668,1.30387 h -1.15993 q -0.2286,-0.46567 -0.635,-0.69427 -0.4064,-0.2286 -0.9398,-0.2286 -0.5842,0 -1.0414,0.26247 -0.4572,0.26246 -0.71967,0.75353 -0.254,0.49107 -0.254,1.143 0,0.65193 0.254,1.143 0.26247,0.49107 0.71967,0.762 0.4572,0.26247 1.0414,0.26247 0.5334,0 0.9398,-0.2286 0.4064,-0.2286 0.635,-0.69427 h 1.15993 q -0.3302,0.84667 -1.0668,1.30387 -0.72813,0.4572 -1.66793,0.4572 -0.82974,0 -1.51554,-0.381 -0.6858,-0.38947 -1.0922,-1.07527 -0.39793,-0.6858 -0.39793,-1.5494 z m 10.41399,1.7526 h -2.4638 l -0.42333,1.20227 h -1.00754 l 2.1082,-5.8928 h 1.1176 l 2.1082,5.8928 h -1.016 z m -0.27093,-0.7874 -0.95674,-2.73473 -0.9652,2.73473 z m 3.58986,1.21073 h 1.98966 v 0.77894 h -2.95486 v -5.88434 h 0.9652 z m 3.75918,-5.1054 v 5.88434 h -0.9652 v -5.88434 z m 3.19193,0 q 0.93981,0 1.64254,0.36407 0.7112,0.3556 1.0922,1.03293 0.38947,0.66887 0.38947,1.56634 0,0.89746 -0.38947,1.55786 -0.381,0.6604 -1.0922,1.016 -0.70273,0.34714 -1.64254,0.34714 h -1.92193 v -5.88434 z m 0,5.09694 q 1.03294,0 1.58327,-0.5588 0.55034,-0.5588 0.55034,-1.5748 0,-1.02447 -0.55034,-1.6002 -0.55033,-0.57574 -1.58327,-0.57574 h -0.95673 v 4.30954 z m 7.62847,-0.41487 h -2.4638 l -0.42333,1.20227 h -1.00753 l 2.1082,-5.8928 h 1.1176 l 2.1082,5.8928 h -1.016 z m -0.27093,-0.7874 -0.95673,-2.73473 -0.9652,2.73473 z m 4.54659,-3.89467 q 0.9398,0 1.64253,0.36407 0.7112,0.3556 1.0922,1.03293 0.38947,0.66887 0.38947,1.56634 0,0.89746 -0.38947,1.55786 -0.381,0.6604 -1.0922,1.016 -0.70273,0.34714 -1.64253,0.34714 h -1.92194 v -5.88434 z m 0,5.09694 q 1.03293,0 1.58326,-0.5588 0.55034,-0.5588 0.55034,-1.5748 0,-1.02447 -0.55034,-1.6002 -0.55033,-0.57574 -1.58326,-0.57574 h -0.95674 v 4.30954 z m 10.39705,-3.34434 q 0,0.44874 -0.21167,0.84667 -0.21166,0.39793 -0.67733,0.65193 -0.46567,0.24554 -1.1938,0.24554 h -1.0668 v 2.3876 h -0.9652 v -5.88434 h 2.032 q 0.67733,0 1.143,0.23707 0.47413,0.2286 0.70273,0.62653 0.23707,0.39794 0.23707,0.889 z m -2.0828,0.95674 q 0.55033,0 0.82127,-0.24554 0.27093,-0.254 0.27093,-0.7112 0,-0.9652 -1.0922,-0.9652 h -1.0668 v 1.92194 z m 5.6896,3.23426 q -0.82127,0 -1.51554,-0.381 -0.6858,-0.38946 -1.0922,-1.07526 -0.39793,-0.69427 -0.39793,-1.55787 0,-0.8636 0.39793,-1.5494 0.4064,-0.6858 1.0922,-1.0668 0.69427,-0.38947 1.51554,-0.38947 0.82973,0 1.51553,0.38947 0.69427,0.381 1.0922,1.0668 0.39794,0.6858 0.39794,1.5494 0,0.8636 -0.39794,1.55787 -0.39793,0.6858 -1.0922,1.07526 -0.6858,0.381 -1.51553,0.381 z m 0,-0.8382 q 0.5842,0 1.0414,-0.26246 0.4572,-0.27094 0.7112,-0.762 0.26247,-0.49954 0.26247,-1.15147 0,-0.65193 -0.26247,-1.143 -0.254,-0.49107 -0.7112,-0.75353 -0.4572,-0.26247 -1.0414,-0.26247 -0.5842,0 -1.0414,0.26247 -0.4572,0.26246 -0.71967,0.75353 -0.254,0.49107 -0.254,1.143 0,0.65193 0.254,1.15147 0.26247,0.49106 0.71967,0.762 0.4572,0.26246 1.0414,0.26246 z m 7.01039,0.77894 -1.35467,-2.35374 h -0.7366 v 2.35374 h -0.9652 v -5.88434 h 2.032 q 0.67733,0 1.143,0.23707 0.47413,0.23707 0.70273,0.635 0.23707,0.39793 0.23707,0.889 0,0.57573 -0.33867,1.04987 -0.3302,0.46566 -1.02446,0.635 l 1.45626,2.4384 z m -2.09127,-3.1242 h 1.0668 q 0.54187,0 0.8128,-0.27094 0.2794,-0.27093 0.2794,-0.72813 0,-0.4572 -0.27093,-0.7112 -0.27094,-0.26247 -0.82127,-0.26247 h -1.0668 z m 10.38859,-2.76014 v 0.7874 h -1.56634 v 5.09694 h -0.9652 v -5.09694 h -1.5748 v -0.7874 z m 1.9304,0 v 3.75074 q 0,0.66886 0.34713,1.00753 0.3556,0.33867 0.98213,0.33867 0.635,0 0.98214,-0.33867 0.3556,-0.33867 0.3556,-1.00753 v -3.75074 h 0.9652 v 3.7338 q 0,0.71967 -0.31327,1.2192 -0.31327,0.49954 -0.8382,0.74507 -0.52493,0.24553 -1.15993,0.24553 -0.635,0 -1.15994,-0.24553 -0.51646,-0.24553 -0.82126,-0.74507 -0.3048,-0.49953 -0.3048,-1.2192 v -3.7338 z m 9.02543,5.9436 q -0.59266,0 -1.0668,-0.2032 -0.47413,-0.21166 -0.74506,-0.59266 -0.27094,-0.381 -0.27094,-0.889 h 1.03294 q 0.0339,0.381 0.29633,0.62653 0.27093,0.24553 0.75353,0.24553 0.49954,0 0.77894,-0.23706 0.2794,-0.24554 0.2794,-0.62654 0,-0.29633 -0.1778,-0.4826 -0.16933,-0.18626 -0.4318,-0.28786 -0.254,-0.1016 -0.7112,-0.22014 -0.57574,-0.1524 -0.9398,-0.3048 -0.3556,-0.16086 -0.6096,-0.49106 -0.254,-0.3302 -0.254,-0.88054 0,-0.508 0.254,-0.889 0.254,-0.381 0.7112,-0.5842 0.4572,-0.2032 1.05833,-0.2032 0.85514,0 1.397,0.4318 0.55034,0.42334 0.6096,1.1684 h -1.0668 q -0.0254,-0.32173 -0.3048,-0.55033 -0.2794,-0.2286 -0.7366,-0.2286 -0.41487,0 -0.67733,0.21167 -0.26247,0.21166 -0.26247,0.6096 0,0.27093 0.16087,0.44873 0.16933,0.16933 0.42333,0.27093 0.254,0.1016 0.69427,0.22014 0.5842,0.16086 0.94827,0.32173 0.37253,0.16087 0.62653,0.49953 0.26247,0.3302 0.26247,0.889 0,0.44874 -0.24554,0.84667 -0.23706,0.39793 -0.70273,0.64347 -0.4572,0.23706 -1.08374,0.23706 z m 6.72253,-1.26153 h -2.46381 l -0.42333,1.20227 h -1.00753 l 2.1082,-5.8928 h 1.1176 l 2.1082,5.8928 h -1.016 z m -0.27094,-0.7874 -0.95673,-2.73473 -0.9652,2.73473 z m 3.58986,1.21073 h 1.98967 v 0.77894 h -2.95487 v -5.88434 h 0.9652 z m 3.75072,-5.1054 v 3.75074 q 0,0.66886 0.34713,1.00753 0.3556,0.33867 0.98214,0.33867 0.635,0 0.98213,-0.33867 0.3556,-0.33867 0.3556,-1.00753 v -3.75074 h 0.9652 v 3.7338 q 0,0.71967 -0.31326,1.2192 -0.31327,0.49954 -0.8382,0.74507 -0.52494,0.24553 -1.15994,0.24553 -0.635,0 -1.15993,-0.24553 -0.51647,-0.24553 -0.82127,-0.74507 -0.3048,-0.49953 -0.3048,-1.2192 v -3.7338 z m 6.8072,0 q 0.9398,0 1.64253,0.36407 0.7112,0.3556 1.0922,1.03293 0.38947,0.66887 0.38947,1.56634 0,0.89746 -0.38947,1.55786 -0.381,0.6604 -1.0922,1.016 -0.70273,0.34714 -1.64253,0.34714 h -1.92194 v -5.88434 z m 0,5.09694 q 1.03293,0 1.58326,-0.5588 0.55034,-0.5588 0.55034,-1.5748 0,-1.02447 -0.55034,-1.6002 -0.55033,-0.57574 -1.58326,-0.57574 h -0.95674 v 4.30954 z"
           id="text28-1-9"
           aria-label="EXACTITUD Y CALIDAD POR TU SALUD" /></g></g></g></svg>
